<?xml version="1.0" encoding="utf-8"?>
<!-- Generator: Adobe Illustrator 17.0.0, SVG Export Plug-In . SVG Version: 6.00 Build 0)  -->
<!DOCTYPE svg PUBLIC "-//W3C//DTD SVG 1.1//EN" "http://www.w3.org/Graphics/SVG/1.1/DTD/svg11.dtd">
<svg version="1.1" id="Layer_1" xmlns="http://www.w3.org/2000/svg" xmlns:xlink="http://www.w3.org/1999/xlink" x="0px" y="0px"
	 width="900px" height="900px" viewBox="0 0 900 900" enable-background="new 0 0 900 900" xml:space="preserve">
<g>
	<linearGradient id="SVGID_1_" gradientUnits="userSpaceOnUse" x1="394.5309" y1="447.5" x2="900" y2="447.5">
		<stop  offset="0" style="stop-color:#000428"/>
		<stop  offset="0.0334" style="stop-color:#000D35"/>
		<stop  offset="0.1188" style="stop-color:#002152"/>
		<stop  offset="0.2147" style="stop-color:#00326A"/>
		<stop  offset="0.3237" style="stop-color:#003E7C"/>
		<stop  offset="0.4537" style="stop-color:#004788"/>
		<stop  offset="0.625" style="stop-color:#004D90"/>
		<stop  offset="1" style="stop-color:#004E92"/>
	</linearGradient>
	<path fill-rule="evenodd" clip-rule="evenodd" fill="url(#SVGID_1_)" d="M414.387,116.809
		C426.119,86.872,437.851,56.936,449.583,27c38.766,92.565,77.531,185.129,113.98,264.773
		c36.448,79.644,70.578,146.371,104.551,207.082s67.791,115.409,90.28,151.576c22.491,36.165,33.652,53.8,46.569,73.983
		c12.915,20.186,27.582,42.921,44.414,68.075c16.832,25.154,35.832,52.728,44.872,65.893c9.038,13.166,8.122,11.927-7.772,1.663
		c-15.893-10.263-46.761-29.551-91.171-48.839c-44.41-19.287-102.359-38.573-146.997-49.965
		c-44.64-11.391-75.968-14.887-89.115-23.489c-13.146-8.6-8.113-22.304-5.6-34.742c2.512-12.438,2.501-23.608,2.491-34.779
		c45.292-3.585,90.582-7.171,113.18-9.103c22.599-1.934,22.503-2.217,22.407-2.734c-0.095-0.518-0.191-1.271-49.713-83.352
		c-49.525-82.081-148.477-245.49-247.428-408.9C401.151,148.364,407.768,132.586,414.387,116.809z"/>
	<linearGradient id="SVGID_2_" gradientUnits="userSpaceOnUse" x1="0" y1="700.2475" x2="406.6929" y2="700.2475">
		<stop  offset="0" style="stop-color:#000428"/>
		<stop  offset="0.0334" style="stop-color:#000D35"/>
		<stop  offset="0.1188" style="stop-color:#002152"/>
		<stop  offset="0.2147" style="stop-color:#00326A"/>
		<stop  offset="0.3237" style="stop-color:#003E7C"/>
		<stop  offset="0.4537" style="stop-color:#004788"/>
		<stop  offset="0.625" style="stop-color:#004D90"/>
		<stop  offset="1" style="stop-color:#004E92"/>
	</linearGradient>
	<path fill-rule="evenodd" clip-rule="evenodd" fill="url(#SVGID_2_)" d="M398.234,632.022
		c-11.508,21.752-35.854,62.212-48.469,82.442c-12.614,20.232-13.499,20.232-69.84,42.343C223.587,778.918,111.793,823.14,0,867.362
		c23.797-33.951,47.595-67.901,70.017-101.302c22.424-33.398,43.476-66.248,64.526-99.097c50.568-3.527,101.136-7.053,126.531-8.816
		c25.394-1.763,25.616-1.763,38.674-22.972c13.057-21.21,38.951-63.627,52.008-84.835c13.057-21.21,13.28-21.21,20.362-8.701
		c7.082,12.507,21.025,37.522,28.66,51.554C408.415,607.223,409.742,610.267,398.234,632.022z"/>
	<linearGradient id="SVGID_3_" gradientUnits="userSpaceOnUse" x1="175.4821" y1="415.6288" x2="563.4545" y2="415.6288">
		<stop  offset="0" style="stop-color:#000428"/>
		<stop  offset="0.0334" style="stop-color:#000D35"/>
		<stop  offset="0.1188" style="stop-color:#002152"/>
		<stop  offset="0.2147" style="stop-color:#00326A"/>
		<stop  offset="0.3237" style="stop-color:#003E7C"/>
		<stop  offset="0.4537" style="stop-color:#004788"/>
		<stop  offset="0.625" style="stop-color:#004D90"/>
		<stop  offset="1" style="stop-color:#004E92"/>
	</linearGradient>
	<path fill-rule="evenodd" clip-rule="evenodd" fill="url(#SVGID_3_)" d="M534.086,527.87
		c-34.54-58.754-103.154-175.676-171.767-292.596c-32.508,67.869-65.017,135.738-96.154,195.855
		c-31.141,60.119-60.911,112.486-90.682,164.854c26.836-2.73,53.668-5.459,67.119-6.953c13.45-1.495,13.515-1.756,31.564-33.201
		c18.051-31.444,54.084-94.074,72.133-125.388c18.049-31.314,18.116-31.314,36.729,0.358s55.771,95.017,74.615,126.755
		c18.845,31.737,19.376,31.868,34.974,31.641c15.599-0.229,46.268-0.813,61.37-1.4C569.087,587.209,568.623,586.624,534.086,527.87z
		"/>
</g>
</svg>
