<?xml version="1.0" encoding="utf-8"?>
<!-- Generator: Adobe Illustrator 17.0.0, SVG Export Plug-In . SVG Version: 6.00 Build 0)  -->
<!DOCTYPE svg PUBLIC "-//W3C//DTD SVG 1.1//EN" "http://www.w3.org/Graphics/SVG/1.1/DTD/svg11.dtd">
<svg version="1.1" id="Layer_1" xmlns="http://www.w3.org/2000/svg" xmlns:xlink="http://www.w3.org/1999/xlink" x="0px" y="0px"
	 width="900px" height="900px" viewBox="0 0 900 900" enable-background="new 0 0 900 900" xml:space="preserve">
<g>
	<path fill-rule="evenodd" clip-rule="evenodd" fill="#FFFFFF" d="M414.387,119.809C426.119,89.872,437.851,59.936,449.583,30
		c38.766,92.565,77.531,185.129,113.98,264.773c36.448,79.644,70.578,146.371,104.551,207.082s67.791,115.409,90.28,151.576
		c22.491,36.165,33.652,53.8,46.569,73.983c12.915,20.186,27.582,42.921,44.414,68.075c16.832,25.154,35.832,52.728,44.872,65.893
		c9.038,13.166,8.122,11.927-7.772,1.663c-15.893-10.263-46.761-29.551-91.171-48.839c-44.41-19.287-102.359-38.573-146.997-49.965
		c-44.64-11.391-75.968-14.887-89.115-23.489c-13.146-8.6-8.113-22.304-5.6-34.742c2.512-12.438,2.501-23.608,2.491-34.779
		c45.292-3.585,90.582-7.171,113.18-9.103c22.599-1.934,22.503-2.217,22.407-2.734c-0.095-0.518-0.191-1.271-49.713-83.352
		c-49.525-82.081-148.477-245.49-247.428-408.9C401.151,151.364,407.768,135.586,414.387,119.809z"/>
	<path fill-rule="evenodd" clip-rule="evenodd" fill="#FFFFFF" d="M398.234,635.022c-11.508,21.752-35.854,62.212-48.469,82.442
		c-12.614,20.232-13.499,20.232-69.84,42.343C223.587,781.918,111.793,826.14,0,870.362c23.797-33.951,47.595-67.901,70.017-101.302
		c22.424-33.398,43.476-66.248,64.526-99.097c50.568-3.527,101.136-7.053,126.531-8.816c25.394-1.763,25.616-1.763,38.674-22.972
		c13.057-21.21,38.951-63.627,52.008-84.835c13.057-21.21,13.28-21.21,20.362-8.701c7.082,12.507,21.025,37.522,28.66,51.554
		C408.415,610.223,409.742,613.267,398.234,635.022z"/>
	<path fill-rule="evenodd" clip-rule="evenodd" fill="#FFFFFF" d="M534.086,530.87c-34.54-58.754-103.154-175.676-171.767-292.596
		c-32.508,67.869-65.017,135.738-96.154,195.855c-31.141,60.119-60.911,112.486-90.682,164.854
		c26.836-2.73,53.668-5.459,67.119-6.953c13.45-1.495,13.515-1.756,31.564-33.201c18.051-31.444,54.084-94.074,72.133-125.388
		c18.049-31.314,18.116-31.314,36.729,0.358s55.771,95.017,74.615,126.755c18.845,31.737,19.376,31.868,34.974,31.641
		c15.599-0.229,46.268-0.813,61.37-1.4C569.087,590.209,568.623,589.624,534.086,530.87z"/>
</g>
</svg>
